HIERARCHY
ROOT mixamorig:Hips
{
	OFFSET -0.000008 104.274872 1.554316
	CHANNELS 6 Xposition Yposition Zposition Xrotation Yrotation Zrotation
	JOINT mixamorig:Spine
	{
		OFFSET -0.000005 10.181595 0.131519
		CHANNELS 6 Xposition Yposition Zposition Xrotation Yrotation Zrotation
		JOINT mixamorig:Spine1
		{
			OFFSET -0.000000 9.893959 -1.470707
			CHANNELS 6 Xposition Yposition Zposition Xrotation Yrotation Zrotation
			JOINT mixamorig:Spine2
			{
				OFFSET -0.000000 9.220757 -1.370641
				CHANNELS 6 Xposition Yposition Zposition Xrotation Yrotation Zrotation
				JOINT mixamorig:Neck
				{
					OFFSET 0.000001 16.740417 -2.049036
					CHANNELS 6 Xposition Yposition Zposition Xrotation Yrotation Zrotation
					JOINT mixamorig:Head
					{
						OFFSET 0.000000 9.617874 1.685006
						CHANNELS 6 Xposition Yposition Zposition Xrotation Yrotation Zrotation
						JOINT mixamorig:HeadTop_End
						{
							OFFSET 0.000002 22.037354 7.501101
							CHANNELS 6 Xposition Yposition Zposition Xrotation Yrotation Zrotation
							End Site
							{
								OFFSET 0.000168 2310.654297 -282.823242
							}
						}
					}
				}
				JOINT mixamorig:RightShoulder
				{
					OFFSET -4.569970 11.014908 -2.160885
					CHANNELS 6 Xposition Yposition Zposition Xrotation Yrotation Zrotation
					JOINT mixamorig:RightArm
					{
						OFFSET -10.592851 -0.524811 -2.232101
						CHANNELS 6 Xposition Yposition Zposition Xrotation Yrotation Zrotation
						JOINT mixamorig:RightForeArm
						{
							OFFSET -27.841511 0.000031 -0.000004
							CHANNELS 6 Xposition Yposition Zposition Xrotation Yrotation Zrotation
							JOINT mixamorig:RightHand
							{
								OFFSET -28.328831 -0.000015 0.000015
								CHANNELS 6 Xposition Yposition Zposition Xrotation Yrotation Zrotation
								JOINT mixamorig:RightHandThumb1
								{
									OFFSET -2.464806 -1.573990 2.681852
									CHANNELS 6 Xposition Yposition Zposition Xrotation Yrotation Zrotation
									JOINT mixamorig:RightHandThumb2
									{
										OFFSET -3.215179 -1.872803 1.924282
										CHANNELS 6 Xposition Yposition Zposition Xrotation Yrotation Zrotation
										JOINT mixamorig:RightHandThumb3
										{
											OFFSET -2.654831 -1.527969 1.512609
											CHANNELS 6 Xposition Yposition Zposition Xrotation Yrotation Zrotation
											JOINT mixamorig:RightHandThumb4
											{
												OFFSET -2.018814 -1.152008 1.108052
												CHANNELS 6 Xposition Yposition Zposition Xrotation Yrotation Zrotation
												End Site
												{
													OFFSET -188.809540 -114.533607 132.431396
												}
											}
										}
									}
								}
								JOINT mixamorig:RightHandIndex1
								{
									OFFSET -9.108284 -0.517868 2.259835
									CHANNELS 6 Xposition Yposition Zposition Xrotation Yrotation Zrotation
									JOINT mixamorig:RightHandIndex2
									{
										OFFSET -3.699989 0.000000 0.001215
										CHANNELS 6 Xposition Yposition Zposition Xrotation Yrotation Zrotation
										JOINT mixamorig:RightHandIndex3
										{
											OFFSET -2.850006 0.000031 -0.000522
											CHANNELS 6 Xposition Yposition Zposition Xrotation Yrotation Zrotation
											JOINT mixamorig:RightHandIndex4
											{
												OFFSET -2.772186 -0.000015 -0.000020
												CHANNELS 6 Xposition Yposition Zposition Xrotation Yrotation Zrotation
												End Site
												{
													OFFSET -277.218445 0.000000 -0.050231
												}
											}
										}
									}
								}
								JOINT mixamorig:RightHandMiddle1
								{
									OFFSET -9.532516 -0.000031 -0.000023
									CHANNELS 6 Xposition Yposition Zposition Xrotation Yrotation Zrotation
									JOINT mixamorig:RightHandMiddle2
									{
										OFFSET -3.700005 -0.000015 0.003713
										CHANNELS 6 Xposition Yposition Zposition Xrotation Yrotation Zrotation
										JOINT mixamorig:RightHandMiddle3
										{
											OFFSET -2.949974 0.000015 -0.002054
											CHANNELS 6 Xposition Yposition Zposition Xrotation Yrotation Zrotation
											JOINT mixamorig:RightHandMiddle4
											{
												OFFSET -2.946640 0.000000 -0.000156
												CHANNELS 6 Xposition Yposition Zposition Xrotation Yrotation Zrotation
												End Site
												{
													OFFSET -294.664337 0.000000 -0.113670
												}
											}
										}
									}
								}
								JOINT mixamorig:RightHandRing1
								{
									OFFSET -9.103600 -0.043076 -1.865134
									CHANNELS 6 Xposition Yposition Zposition Xrotation Yrotation Zrotation
									JOINT mixamorig:RightHandRing2
									{
										OFFSET -3.379288 0.000000 -0.001055
										CHANNELS 6 Xposition Yposition Zposition Xrotation Yrotation Zrotation
										JOINT mixamorig:RightHandRing3
										{
											OFFSET -2.889687 -0.000015 0.000379
											CHANNELS 6 Xposition Yposition Zposition Xrotation Yrotation Zrotation
											JOINT mixamorig:RightHandRing4
											{
												OFFSET -2.638809 -0.000015 0.000941
												CHANNELS 6 Xposition Yposition Zposition Xrotation Yrotation Zrotation
												End Site
												{
													OFFSET -263.880371 0.000000 0.516020
												}
											}
										}
									}
								}
								JOINT mixamorig:RightHandPinky1
								{
									OFFSET -8.076683 -0.486710 -3.806280
									CHANNELS 6 Xposition Yposition Zposition Xrotation Yrotation Zrotation
									JOINT mixamorig:RightHandPinky2
									{
										OFFSET -3.600014 -0.000015 -0.003747
										CHANNELS 6 Xposition Yposition Zposition Xrotation Yrotation Zrotation
										JOINT mixamorig:RightHandPinky3
										{
											OFFSET -2.099983 0.000000 -0.005739
											CHANNELS 6 Xposition Yposition Zposition Xrotation Yrotation Zrotation
											JOINT mixamorig:RightHandPinky4
											{
												OFFSET -2.115768 -0.000031 -0.003680
												CHANNELS 6 Xposition Yposition Zposition Xrotation Yrotation Zrotation
												End Site
												{
													OFFSET -211.577087 0.000000 -0.350686
												}
											}
										}
									}
								}
							}
						}
					}
				}
				JOINT mixamorig:LeftShoulder
				{
					OFFSET 4.570447 11.014725 -2.160855
					CHANNELS 6 Xposition Yposition Zposition Xrotation Yrotation Zrotation
					JOINT mixamorig:LeftArm
					{
						OFFSET 10.592371 -0.524597 -2.232119
						CHANNELS 6 Xposition Yposition Zposition Xrotation Yrotation Zrotation
						JOINT mixamorig:LeftForeArm
						{
							OFFSET 27.841532 -0.000031 0.000026
							CHANNELS 6 Xposition Yposition Zposition Xrotation Yrotation Zrotation
							JOINT mixamorig:LeftHand
							{
								OFFSET 28.328846 -0.000061 0.000022
								CHANNELS 6 Xposition Yposition Zposition Xrotation Yrotation Zrotation
								JOINT mixamorig:LeftHandThumb1
								{
									OFFSET 2.466141 -1.576172 2.681732
									CHANNELS 6 Xposition Yposition Zposition Xrotation Yrotation Zrotation
									JOINT mixamorig:LeftHandThumb2
									{
										OFFSET 3.217812 -1.872070 1.916482
										CHANNELS 6 Xposition Yposition Zposition Xrotation Yrotation Zrotation
										JOINT mixamorig:LeftHandThumb3
										{
											OFFSET 2.656029 -1.528778 1.514513
											CHANNELS 6 Xposition Yposition Zposition Xrotation Yrotation Zrotation
											JOINT mixamorig:LeftHandThumb4
											{
												OFFSET 2.020889 -1.154053 1.115139
												CHANNELS 6 Xposition Yposition Zposition Xrotation Yrotation Zrotation
												End Site
												{
													OFFSET 190.885437 -115.081749 130.048782
												}
											}
										}
									}
								}
								JOINT mixamorig:LeftHandIndex1
								{
									OFFSET 9.109314 -0.518021 2.259871
									CHANNELS 6 Xposition Yposition Zposition Xrotation Yrotation Zrotation
									JOINT mixamorig:LeftHandIndex2
									{
										OFFSET 3.699989 0.000000 -0.000322
										CHANNELS 6 Xposition Yposition Zposition Xrotation Yrotation Zrotation
										JOINT mixamorig:LeftHandIndex3
										{
											OFFSET 2.850006 0.000000 0.000352
											CHANNELS 6 Xposition Yposition Zposition Xrotation Yrotation Zrotation
											JOINT mixamorig:LeftHandIndex4
											{
												OFFSET 2.774864 -0.000031 -0.000027
												CHANNELS 6 Xposition Yposition Zposition Xrotation Yrotation Zrotation
												End Site
												{
													OFFSET 277.486267 0.000000 -0.009857
												}
											}
										}
									}
								}
								JOINT mixamorig:LeftHandMiddle1
								{
									OFFSET 9.533394 0.000061 0.000044
									CHANNELS 6 Xposition Yposition Zposition Xrotation Yrotation Zrotation
									JOINT mixamorig:LeftHandMiddle2
									{
										OFFSET 3.699989 -0.000015 -0.000231
										CHANNELS 6 Xposition Yposition Zposition Xrotation Yrotation Zrotation
										JOINT mixamorig:LeftHandMiddle3
										{
											OFFSET 2.949997 -0.000015 -0.000059
											CHANNELS 6 Xposition Yposition Zposition Xrotation Yrotation Zrotation
											JOINT mixamorig:LeftHandMiddle4
											{
												OFFSET 2.952896 0.000031 0.000063
												CHANNELS 6 Xposition Yposition Zposition Xrotation Yrotation Zrotation
												End Site
												{
													OFFSET 295.289337 0.000000 0.022810
												}
											}
										}
									}
								}
								JOINT mixamorig:LeftHandRing1
								{
									OFFSET 9.104523 -0.042999 -1.865074
									CHANNELS 6 Xposition Yposition Zposition Xrotation Yrotation Zrotation
									JOINT mixamorig:LeftHandRing2
									{
										OFFSET 3.150009 -0.000031 0.000043
										CHANNELS 6 Xposition Yposition Zposition Xrotation Yrotation Zrotation
										JOINT mixamorig:LeftHandRing3
										{
											OFFSET 2.949982 -0.000015 0.000040
											CHANNELS 6 Xposition Yposition Zposition Xrotation Yrotation Zrotation
											JOINT mixamorig:LeftHandRing4
											{
												OFFSET 2.644348 0.000000 0.000057
												CHANNELS 6 Xposition Yposition Zposition Xrotation Yrotation Zrotation
												End Site
												{
													OFFSET 264.434631 0.000000 0.012105
												}
											}
										}
									}
								}
								JOINT mixamorig:LeftHandPinky1
								{
									OFFSET 8.077789 -0.486847 -3.806259
									CHANNELS 6 Xposition Yposition Zposition Xrotation Yrotation Zrotation
									JOINT mixamorig:LeftHandPinky2
									{
										OFFSET 3.599953 0.000031 0.014727
										CHANNELS 6 Xposition Yposition Zposition Xrotation Yrotation Zrotation
										JOINT mixamorig:LeftHandPinky3
										{
											OFFSET 2.100021 0.000015 0.007705
											CHANNELS 6 Xposition Yposition Zposition Xrotation Yrotation Zrotation
											JOINT mixamorig:LeftHandPinky4
											{
												OFFSET 2.125504 0.000031 0.007517
												CHANNELS 6 Xposition Yposition Zposition Xrotation Yrotation Zrotation
												End Site
												{
													OFFSET 212.550781 0.000000 0.625752
												}
											}
										}
									}
								}
							}
						}
					}
				}
			}
		}
	}
	JOINT mixamorig:RightUpLeg
	{
		OFFSET -8.207787 -6.751648 -1.599560
		CHANNELS 6 Xposition Yposition Zposition Xrotation Yrotation Zrotation
		JOINT mixamorig:RightLeg
		{
			OFFSET -0.000002 -44.370117 0.345942
			CHANNELS 6 Xposition Yposition Zposition Xrotation Yrotation Zrotation
			JOINT mixamorig:RightFoot
			{
				OFFSET 0.000003 -44.423679 -3.043532
				CHANNELS 6 Xposition Yposition Zposition Xrotation Yrotation Zrotation
				JOINT mixamorig:RightToeBase
				{
					OFFSET -0.000002 -8.728671 10.710558
					CHANNELS 6 Xposition Yposition Zposition Xrotation Yrotation Zrotation
					JOINT mixamorig:RightToe_End
					{
						OFFSET -0.000001 -0.000679 9.278119
						CHANNELS 6 Xposition Yposition Zposition Xrotation Yrotation Zrotation
						End Site
						{
							OFFSET 0.000000 -0.067690 927.812134
						}
					}
				}
			}
		}
	}
	JOINT mixamorig:LeftUpLeg
	{
		OFFSET 8.207793 -6.751686 -1.599556
		CHANNELS 6 Xposition Yposition Zposition Xrotation Yrotation Zrotation
		JOINT mixamorig:LeftLeg
		{
			OFFSET -0.000004 -44.370014 0.346954
			CHANNELS 6 Xposition Yposition Zposition Xrotation Yrotation Zrotation
			JOINT mixamorig:LeftFoot
			{
				OFFSET -0.000001 -44.423672 -3.044401
				CHANNELS 6 Xposition Yposition Zposition Xrotation Yrotation Zrotation
				JOINT mixamorig:LeftToeBase
				{
					OFFSET -0.000002 -8.728669 10.710558
					CHANNELS 6 Xposition Yposition Zposition Xrotation Yrotation Zrotation
					JOINT mixamorig:LeftToe_End
					{
						OFFSET -0.000003 -0.000679 9.278133
						CHANNELS 6 Xposition Yposition Zposition Xrotation Yrotation Zrotation
						End Site
						{
							OFFSET 0.000000 -0.068021 927.813477
						}
					}
				}
			}
		}
	}
}
MOTION
Frames: 3
Frame Time: 0.033333
0.000006 104.270477 1.554256 0.000010 0.000003 -0.000113 -0.000005 10.181587 0.131522 0.000001 -0.000003 0.000084 -0.000000 9.893967 -1.470711 0.000001 0.000000 -0.000000 -0.000000 9.220802 -1.370642 0.000000 -0.000000 -0.000000 0.000001 16.740433 -2.049030 0.000000 -0.000000 -0.000000 0.000000 9.617859 1.685014 0.000000 0.000000 0.000000 0.000002 22.037384 7.501101 0.000000 -0.000000 0.000000 -4.569968 11.014880 -2.160881 0.000008 0.000001 -0.000038 -10.592877 -0.524748 -2.231917 75.971197 25.769710 -20.255679 -27.841536 -0.000005 0.000533 -57.774378 109.182036 75.630944 -28.328836 0.000006 0.000022 -0.000321 -0.000044 0.000007 -2.464465 -1.573971 2.682397 -20.852072 -151.214965 42.167522 -3.215293 -1.872603 1.924650 158.543963 32.351966 5.060260 -2.654945 -1.527917 1.513103 148.567188 26.061999 -42.107331 -2.018838 -1.152037 1.108062 -0.000004 -0.000002 0.000004 -9.108400 -0.517564 2.260169 108.279768 16.969745 -23.387365 -3.700046 0.000333 0.001551 104.897130 10.746194 -13.920862 -2.850058 0.000365 -0.000216 103.683658 6.678005 -8.491925 -2.772174 -0.000015 -0.000020 -0.000001 -0.000002 -0.000002 -9.532606 0.000258 0.000286 100.971370 17.879569 -21.771300 -3.700055 0.000343 0.003986 99.992617 10.049272 -11.851835 -2.950039 0.000338 -0.001763 101.277355 8.032728 -9.776611 -2.946624 0.000027 -0.000154 -0.000001 0.000000 -0.000000 -9.103699 -0.042765 -1.864839 98.418976 19.594899 -22.580966 -3.379330 0.000327 -0.000783 99.610051 10.128263 -11.995477 -2.889757 0.000351 0.000670 105.097357 5.345675 -7.033550 -2.638814 -0.000002 0.000942 -0.000000 0.000001 -0.000001 -8.076759 -0.486399 -3.806003 89.380689 20.871878 -20.498482 -3.600064 0.000269 -0.003508 90.637737 11.366921 -11.121279 -2.100038 0.000314 -0.005468 94.535856 6.082755 -6.344500 -2.115773 -0.000058 -0.003688 0.000003 -0.000001 -0.000001 4.570446 11.014691 -2.160851 -0.000018 0.000010 -0.000021 10.592380 -0.524490 -2.232342 74.195361 -4.511785 3.412798 27.841808 0.000076 -0.000240 90.239810 -68.892444 69.116474 28.328833 -0.000028 0.000017 0.000022 -0.000089 -0.000000 2.466251 -1.576035 2.681826 -169.192501 11.046252 74.985334 3.217867 -1.871828 1.916420 169.104269 -21.506097 37.640438 2.656112 -1.528678 1.514508 139.103756 -27.472954 62.199043 2.020890 -1.154069 1.115147 0.000005 0.000003 0.000006 9.109371 -0.517891 2.259737 78.303024 -19.376611 15.816051 3.700046 0.000115 -0.000468 76.678770 -16.919427 13.431596 2.850058 0.000150 0.000210 74.538169 -14.395800 10.977647 2.774887 -0.000031 -0.000028 0.000001 -0.000005 0.000000 9.533467 0.000176 -0.000075 77.620291 -18.329041 14.779302 3.700033 0.000151 -0.000371 82.010887 -13.933007 12.126276 2.950058 0.000154 -0.000204 83.358757 -16.716135 14.907337 2.952865 -0.000033 0.000067 -0.000000 -0.000001 0.000000 9.104580 -0.042880 -1.865213 75.716581 -17.071923 13.310624 3.150064 0.000187 -0.000108 83.949022 -12.740997 11.472435 2.950022 0.000168 -0.000084 88.103450 -13.756036 13.313898 2.644334 0.000030 0.000060 -0.000000 -0.000000 -0.000000 8.077837 -0.486761 -3.806419 65.221347 -18.264254 12.139814 3.600005 0.000150 0.014578 68.289652 -15.965361 11.229588 2.100042 0.000154 0.007567 73.384714 -14.390181 11.122200 2.125509 -0.000020 0.007523 0.000002 -0.000006 -0.000005 -8.207786 -6.751667 -1.599560 -0.077001 -0.000003 0.000080 -0.000002 -44.370110 0.345938 0.153719 -0.000000 -0.000000 0.000000 -44.423679 -3.043532 -0.076700 0.000000 -0.000002 -0.000006 -8.728667 10.710559 -0.000009 -0.000000 -0.000000 -0.000001 -0.000679 9.278123 0.000000 -0.000000 -0.000000 8.207792 -6.751710 -1.599556 -0.074518 -0.000003 0.000081 -0.000002 -44.370014 0.346960 0.148822 0.000002 0.000000 -0.000001 -44.423664 -3.044403 -0.074314 0.000000 -0.000002 -0.000004 -8.728671 10.710558 0.000007 -0.000000 -0.000000 0.000000 -0.000680 9.278137 -0.000000 0.000000 -0.000001 
0.000006 104.270477 1.554256 0.000010 0.000003 -0.000113 -0.000005 10.181587 0.131522 0.000001 -0.000003 0.000084 -0.000000 9.893967 -1.470711 0.000001 0.000000 -0.000000 -0.000000 9.220802 -1.370642 0.000000 -0.000000 -0.000000 0.000001 16.740433 -2.049030 0.000000 -0.000000 -0.000000 0.000000 9.617859 1.685014 0.000000 0.000000 0.000000 0.000002 22.037384 7.501101 0.000000 -0.000000 0.000000 -4.569968 11.014880 -2.160881 0.000008 0.000001 -0.000038 -10.592872 -0.524778 -2.231884 76.349514 32.380571 -25.717237 -27.841522 0.000012 0.000545 -54.104319 107.587589 69.798215 -28.328821 0.000023 0.000024 -0.000321 -0.000045 0.000004 -2.464398 -1.573906 2.682386 -31.722469 -151.879433 22.531155 -3.215272 -1.872590 1.924659 156.366526 32.451130 7.323548 -2.654950 -1.527884 1.513074 146.243366 27.049610 -37.403834 -2.018812 -1.151988 1.108059 0.000000 -0.000006 0.000002 -9.108376 -0.517571 2.260185 108.975989 16.380626 -22.871360 -3.700056 0.000319 0.001535 104.628348 11.850016 -15.273357 -2.850075 0.000360 -0.000221 102.563876 8.970461 -11.175935 -2.772176 -0.000001 -0.000020 0.000001 -0.000000 -0.000001 -9.532590 0.000266 0.000285 100.948809 17.954783 -21.853011 -3.700056 0.000344 0.003993 100.321894 10.521008 -12.483536 -2.950051 0.000339 -0.001759 101.732621 9.915378 -12.162205 -2.946621 -0.000000 -0.000155 -0.000001 -0.000003 -0.000001 -9.103695 -0.042771 -1.864839 97.399085 19.567707 -22.158199 -3.379345 0.000316 -0.000769 99.700005 9.031274 -10.717435 -2.889757 0.000350 0.000673 105.449515 6.264555 -8.284199 -2.638794 -0.000001 0.000940 -0.000001 -0.000000 0.000000 -8.076768 -0.486409 -3.806006 88.174129 21.622982 -20.808183 -3.600056 0.000275 -0.003507 90.232215 11.192320 -10.868782 -2.100010 0.000321 -0.005472 95.461073 6.415279 -6.812427 -2.115789 -0.000054 -0.003678 -0.000001 -0.000000 -0.000004 4.570446 11.014691 -2.160851 -0.000018 0.000010 -0.000021 10.592375 -0.524497 -2.232309 74.678078 -2.484699 1.895725 27.841814 0.000060 -0.000214 90.899641 -71.402579 72.257514 28.328863 -0.000028 0.000015 0.000022 -0.000090 -0.000000 2.466248 -1.575895 2.681784 -162.990129 -10.542478 42.072599 3.217864 -1.871950 1.916472 165.006702 -14.529967 63.530820 2.656105 -1.528696 1.514509 141.328840 -26.370022 65.134993 2.020898 -1.154071 1.115153 0.000002 0.000003 0.000006 9.109382 -0.517895 2.259740 80.398915 -22.357093 18.950112 3.700057 0.000139 -0.000464 77.871615 -14.553805 11.794446 2.850052 0.000181 0.000216 77.069239 -10.709491 8.537339 2.774881 -0.000029 -0.000022 0.000001 -0.000002 0.000002 9.533467 0.000187 -0.000079 79.479244 -21.810462 18.192602 3.700030 0.000170 -0.000387 82.459467 -11.950163 10.478997 2.950032 0.000171 -0.000197 82.971007 -10.505310 9.297799 2.952847 -0.000015 0.000055 -0.000000 0.000004 0.000001 9.104614 -0.042881 -1.865208 79.310388 -21.393616 17.799241 3.150040 0.000171 -0.000105 83.327550 -13.861295 12.348415 2.950029 0.000162 -0.000076 83.535078 -10.360781 9.259704 2.644329 0.000028 0.000059 0.000000 -0.000000 -0.000001 8.077846 -0.486753 -3.806394 70.535951 -22.139978 16.204807 3.600020 0.000123 0.014581 68.734987 -18.197571 12.877042 2.100034 0.000145 0.007545 70.154102 -12.884804 9.414829 2.125499 -0.000032 0.007529 0.000001 -0.000002 0.000002 -8.207786 -6.751667 -1.599560 -0.077001 -0.000003 0.000080 -0.000002 -44.370110 0.345938 0.153719 -0.000000 -0.000000 0.000000 -44.423679 -3.043532 -0.076700 0.000000 -0.000002 -0.000006 -8.728667 10.710559 -0.000009 -0.000000 -0.000000 -0.000001 -0.000679 9.278123 0.000000 -0.000000 -0.000000 8.207792 -6.751710 -1.599556 -0.074518 -0.000003 0.000081 -0.000002 -44.370014 0.346960 0.148822 0.000002 0.000000 -0.000001 -44.423664 -3.044403 -0.074314 0.000000 -0.000002 -0.000004 -8.728671 10.710558 0.000007 -0.000000 -0.000000 0.000000 -0.000680 9.278137 -0.000000 0.000000 -0.000001 
0.000006 104.270477 1.554256 0.000010 0.000003 -0.000113 -0.000005 10.181587 0.131522 0.000001 -0.000003 0.000084 -0.000000 9.893967 -1.470711 0.000001 0.000000 -0.000000 -0.000000 9.220802 -1.370642 0.000000 -0.000000 -0.000000 0.000001 16.740433 -2.049030 0.000000 -0.000000 -0.000000 0.000000 9.617859 1.685014 0.000000 0.000000 0.000000 0.000002 22.037384 7.501101 0.000000 -0.000000 0.000000 -4.569968 11.014880 -2.160881 0.000008 0.000001 -0.000038 -10.592861 -0.524797 -2.231852 76.039799 38.547453 -30.581554 -27.841524 0.000037 0.000534 -52.750763 104.789165 65.544599 -28.328825 0.000021 0.000031 -0.000321 -0.000045 0.000011 -2.464413 -1.573914 2.682377 -28.800988 -150.829237 27.526605 -3.215281 -1.872573 1.924652 156.752923 32.388118 6.639739 -2.654956 -1.527897 1.513081 145.137654 27.218550 -38.061649 -2.018828 -1.152006 1.108062 -0.000003 -0.000003 0.000009 -9.108375 -0.517561 2.260171 108.411911 16.734411 -23.122559 -3.700068 0.000326 0.001527 104.675975 11.997150 -15.475528 -2.850082 0.000373 -0.000237 102.572783 9.309059 -11.598655 -2.772181 -0.000015 -0.000020 0.000000 -0.000001 -0.000002 -9.532606 0.000261 0.000281 100.503023 18.020313 -21.762699 -3.700059 0.000343 0.003989 99.726704 10.307165 -12.101096 -2.950049 0.000337 -0.001766 100.953591 9.861937 -11.931390 -2.946622 0.000013 -0.000156 0.000000 0.000003 -0.000001 -9.103700 -0.042770 -1.864848 97.501975 19.366371 -21.969816 -3.379328 0.000326 -0.000782 99.353264 8.756961 -10.329740 -2.889735 0.000361 0.000678 104.531619 6.481479 -8.428290 -2.638810 0.000000 0.000940 -0.000000 0.000003 0.000000 -8.076757 -0.486403 -3.806010 87.765083 22.232551 -21.250402 -3.600055 0.000274 -0.003498 90.633967 11.534838 -11.289568 -2.100007 0.000309 -0.005468 95.473340 6.788474 -7.223026 -2.115773 -0.000032 -0.003678 -0.000001 -0.000002 -0.000004 4.570446 11.014691 -2.160851 -0.000018 0.000010 -0.000021 10.592389 -0.524488 -2.232360 73.487945 -9.210818 6.883193 27.841822 0.000066 -0.000197 92.656577 -73.207538 75.768149 28.328831 -0.000029 0.000027 0.000020 -0.000089 0.000000 2.466254 -1.575917 2.681786 -163.629052 -11.092255 41.615205 3.217873 -1.871920 1.916476 160.249652 -16.220246 65.865905 2.656091 -1.528681 1.514493 140.143775 -27.129342 60.370068 2.020899 -1.154087 1.115143 0.000002 0.000005 0.000002 9.109374 -0.517878 2.259733 82.158515 -20.594149 17.987279 3.700032 0.000150 -0.000472 81.061450 -15.796291 13.543957 2.850037 0.000181 0.000189 79.296092 -12.356996 10.251411 2.774864 -0.000044 -0.000033 -0.000000 -0.000001 0.000000 9.533456 0.000176 -0.000085 80.521845 -20.523429 17.425679 3.700055 0.000173 -0.000371 83.453847 -13.543043 12.086893 2.950066 0.000174 -0.000207 82.810532 -11.374307 10.039538 2.952857 -0.000031 0.000058 -0.000000 0.000002 0.000000 9.104578 -0.042875 -1.865189 79.362413 -20.355584 16.945291 3.150053 0.000171 -0.000090 82.659086 -15.352594 13.521565 2.950022 0.000171 -0.000094 82.193069 -11.215348 9.791579 2.644323 0.000030 0.000053 0.000001 -0.000000 0.000001 8.077846 -0.486763 -3.806396 70.105130 -21.815792 15.844844 3.600004 0.000141 0.014577 68.525492 -18.968772 13.363082 2.100030 0.000143 0.007547 69.425000 -13.105049 9.443444 2.125506 -0.000015 0.007518 0.000000 0.000000 0.000002 -8.207786 -6.751667 -1.599560 -0.077001 -0.000003 0.000080 -0.000002 -44.370110 0.345938 0.153719 -0.000000 -0.000000 0.000000 -44.423679 -3.043532 -0.076700 0.000000 -0.000002 -0.000006 -8.728667 10.710559 -0.000009 -0.000000 -0.000000 -0.000001 -0.000679 9.278123 0.000000 -0.000000 -0.000000 8.207792 -6.751710 -1.599556 -0.074518 -0.000003 0.000081 -0.000002 -44.370014 0.346960 0.148822 0.000002 0.000000 -0.000001 -44.423664 -3.044403 -0.074314 0.000000 -0.000002 -0.000004 -8.728671 10.710558 0.000007 -0.000000 -0.000000 0.000000 -0.000680 9.278137 -0.000000 0.000000 -0.000001 
